<?xml version="1.0" standalone="no"?>
<!DOCTYPE svg PUBLIC "-//W3C//DTD SVG 20010904//EN"
 "http://www.w3.org/TR/2001/REC-SVG-20010904/DTD/svg10.dtd">
<svg version="1.0" xmlns="http://www.w3.org/2000/svg"
 width="476.000000pt" height="500.000000pt" viewBox="0 0 476.000000 500.000000"
 preserveAspectRatio="xMidYMid meet">

<g transform="translate(0.000000,500.000000) scale(0.100000,-0.100000)"
fill="#000000" stroke="none">
<path d="M1760 3944 c0 -34 4 -53 10 -49 6 3 10 28 10 56 0 27 -4 49 -10 49
-5 0 -10 -25 -10 -56z"/>
<path d="M1898 3956 c-20 -41 -22 -56 -9 -56 12 0 33 55 29 76 -2 12 -8 6 -20
-20z"/>
<path d="M1630 3931 c0 -24 49 -84 50 -61 0 16 -36 80 -45 80 -3 0 -5 -9 -5
-19z"/>
<path d="M2002 3897 c-25 -27 -28 -37 -9 -37 16 0 47 32 47 48 0 19 -14 14
-38 -11z"/>
<path d="M1555 3831 c-8 -14 33 -34 53 -26 15 6 15 8 -2 21 -23 16 -42 18 -51
5z"/>
<path d="M2065 3817 c-22 -17 -9 -27 27 -20 18 3 25 10 21 19 -7 18 -24 18
-48 1z"/>
<path d="M3743 3823 c-20 -4 -23 -11 -23 -53 0 -74 -5 -80 -61 -80 l-49 0 0
-34 c0 -36 15 -46 72 -46 26 0 27 -3 34 -59 3 -33 15 -74 25 -91 35 -56 122
-76 188 -42 51 26 61 47 33 74 -21 22 -23 22 -51 5 -31 -18 -68 -22 -88 -9
-16 10 -33 57 -33 92 0 27 3 29 43 32 41 3 42 4 45 41 l3 37 -45 0 -46 0 0 70
c0 73 1 72 -47 63z"/>
<path d="M1090 3665 c-36 -63 -69 -115 -73 -115 -4 0 -47 38 -96 85 l-88 85
-6 -42 c-12 -89 -30 -298 -26 -302 2 -2 18 -6 36 -9 l31 -6 7 87 c3 48 8 93
11 100 2 9 32 -12 81 -57 l77 -70 55 100 55 101 23 -28 c12 -16 34 -51 49 -79
15 -27 28 -52 30 -54 2 -2 19 6 39 17 34 21 35 21 35 2 0 -31 61 -87 110 -100
42 -11 113 -7 136 8 7 4 8 18 3 38 -9 30 -9 30 -66 26 -48 -3 -63 0 -85 18
-17 13 -28 31 -28 46 l0 25 26 -20 c18 -14 41 -21 73 -21 122 0 161 111 62
177 -89 60 -210 -10 -236 -136 l-7 -34 -37 69 c-55 103 -115 204 -121 204 -3
0 -34 -52 -70 -115z m450 -60 c14 -17 -13 -45 -43 -45 -26 1 -57 22 -57 39 0
28 78 33 100 6z"/>
<path d="M2456 3687 c-28 -22 -28 -24 -13 -48 14 -21 14 -31 2 -84 -20 -84
-19 -92 15 -103 34 -12 34 -12 49 48 7 25 17 57 22 72 25 62 97 28 85 -41 -3
-20 -9 -53 -12 -73 -6 -36 -5 -38 20 -39 14 -1 32 -2 38 -3 8 -1 17 23 24 62
13 74 31 97 67 88 31 -8 38 -35 28 -111 -5 -33 -8 -61 -7 -62 0 0 17 -4 37 -8
l36 -7 7 48 c3 26 6 73 6 104 0 54 -3 60 -35 89 -39 34 -96 42 -138 20 -16 -9
-22 -9 -25 0 -8 23 -64 43 -104 37 -32 -5 -43 -3 -56 14 l-17 20 -29 -23z"/>
<path d="M3008 3680 c-50 -27 -92 -99 -92 -159 0 -88 67 -146 169 -146 78 1
94 10 84 51 -9 30 -9 30 -66 26 -48 -3 -63 0 -85 18 -17 13 -28 31 -28 46 l0
25 26 -20 c18 -14 41 -21 73 -21 122 0 161 111 62 177 -42 28 -93 29 -143 3z
m122 -75 c14 -17 -13 -45 -43 -45 -26 1 -57 22 -57 39 0 28 78 33 100 6z"/>
<path d="M2325 3653 c-9 -21 -23 -55 -33 -77 l-17 -39 -52 68 -52 67 -16 -39
c-9 -21 -24 -56 -34 -78 l-18 -40 -31 55 c-18 30 -33 59 -35 64 -3 10 -67 -20
-67 -32 0 -4 32 -61 70 -127 l69 -119 41 87 c22 48 41 87 43 87 1 0 25 -29 52
-65 26 -36 50 -64 51 -62 6 5 104 241 104 249 0 4 -13 14 -30 23 l-30 15 -15
-37z"/>
<path d="M1755 3661 c-42 -25 -82 -74 -90 -111 -9 -42 11 -95 48 -126 27 -23
38 -26 89 -22 88 6 158 71 158 146 0 43 -35 106 -67 121 -37 17 -104 13 -138
-8z m103 -67 c45 -31 17 -98 -48 -119 -45 -14 -84 41 -60 85 6 12 26 28 43 35
40 18 38 18 65 -1z"/>
<path d="M3394 3665 c-16 -6 -35 -20 -43 -29 -14 -17 -16 -16 -31 4 -16 21
-18 22 -48 6 -32 -16 -32 -17 -17 -47 9 -16 21 -68 27 -114 l11 -85 33 0 34 0
0 58 c0 77 24 126 66 130 38 4 51 -20 60 -113 l7 -65 36 6 c20 4 37 8 39 9 2
2 -2 39 -8 82 -12 81 -27 120 -54 142 -26 22 -81 29 -112 16z"/>
<path d="M2209 3194 c-107 -37 -209 -152 -250 -282 -77 -246 18 -515 217 -613
134 -66 283 -33 393 86 214 235 151 668 -117 796 -62 29 -178 36 -243 13z"/>
<path d="M3241 2785 c-166 -47 -320 -218 -361 -400 -25 -114 -9 -259 39 -335
61 -98 155 -160 257 -168 115 -10 249 51 347 156 55 60 121 188 138 270 16 78
7 204 -20 274 -62 160 -236 249 -400 203z"/>
<path d="M1166 2757 c-138 -51 -236 -216 -236 -397 0 -65 33 -186 71 -261 18
-37 58 -89 95 -126 160 -161 371 -170 509 -22 26 27 57 73 70 102 140 308 -92
730 -400 726 -27 0 -77 -10 -109 -22z"/>
<path d="M2186 2124 c-296 -66 -517 -286 -581 -578 -24 -106 -16 -283 15 -376
85 -252 268 -431 515 -502 114 -33 298 -32 405 1 246 76 433 255 505 484 130
411 -88 828 -500 957 -94 29 -263 36 -359 14z"/>
<path d="M3726 1708 c-3 -13 -12 -61 -21 -108 -42 -221 -135 -383 -282 -492
-30 -21 -51 -43 -48 -49 4 -5 30 -9 59 -9 112 0 231 92 302 232 41 81 61 164
70 279 8 108 -8 163 -48 167 -22 3 -28 -1 -32 -20z"/>
<path d="M3458 1673 c-16 -4 -24 -23 -44 -108 -12 -53 -50 -129 -92 -184 -45
-59 -45 -81 0 -81 88 0 181 122 195 254 9 88 -12 129 -59 119z"/>
<path d="M1084 1445 c-18 -74 73 -265 127 -265 5 0 13 9 19 21 9 16 7 26 -9
52 -12 18 -41 74 -66 125 -25 50 -50 92 -55 92 -5 0 -12 -11 -16 -25z"/>
<path d="M929 1418 c-29 -53 21 -211 91 -291 36 -41 42 -44 64 -22 19 19 10
46 -35 111 -39 57 -76 138 -84 187 -8 42 -19 47 -36 15z"/>
</g>
</svg>
